<?xml version="1.0" standalone="no"?>
<!DOCTYPE svg PUBLIC "-//W3C//DTD SVG 20010904//EN"
 "http://www.w3.org/TR/2001/REC-SVG-20010904/DTD/svg10.dtd">
<svg version="1.0" xmlns="http://www.w3.org/2000/svg"
 width="260.000000pt" height="260.000000pt" viewBox="0 0 260.000000 260.000000"
 preserveAspectRatio="xMidYMid meet">
<metadata>
Created by potrace 1.14, written by Peter Selinger 2001-2017
</metadata>
<g transform="translate(0.000000,260.000000) scale(0.100000,-0.100000)"
fill="#000000" stroke="none">
<path d="M0 2395 l0 -205 1300 0 1300 0 0 205 0 205 -1300 0 -1300 0 0 -205z"/>
<path d="M0 1285 l0 -855 1300 0 1300 0 0 855 0 855 -1300 0 -1300 0 0 -855z
m2105 459 c94 -33 175 -139 175 -228 0 -25 -1 -26 -67 -26 -38 0 -77 -3 -88
-6 -17 -4 -23 3 -35 38 -9 26 -27 50 -47 64 -61 41 -165 41 -226 0 -27 -18
-32 -28 -32 -61 0 -33 5 -43 32 -61 18 -12 70 -31 115 -43 155 -41 222 -65
267 -95 82 -55 117 -134 108 -241 -6 -76 -33 -131 -91 -182 -56 -49 -126 -73
-236 -80 -205 -13 -347 70 -395 231 -21 70 -19 86 8 86 12 0 51 3 88 6 l65 7
12 -41 c16 -52 57 -101 99 -118 39 -17 140 -18 180 -3 66 25 105 96 81 146
-19 39 -60 59 -194 94 -65 17 -144 44 -175 60 -226 113 -186 402 63 465 69 18
227 11 293 -12z m-1641 7 c3 -5 38 -127 76 -272 39 -145 76 -282 82 -304 10
-39 13 -31 92 270 l81 310 140 0 140 0 3 -457 2 -458 -90 0 -90 0 -1 348 -1
347 -87 -345 -87 -345 -92 -3 -91 -3 -10 38 c-6 21 -45 178 -88 348 l-78 310
-3 -347 -2 -348 -85 0 -85 0 0 460 0 460 134 0 c74 0 137 -4 140 -9z"/>
<path d="M0 190 l0 -190 1300 0 1300 0 0 190 0 190 -1300 0 -1300 0 0 -190z"/>
</g>
</svg>
